<svg xmlns="http://www.w3.org/2000/svg" version="1.0" preserveAspectRatio="xMidYMid meet" viewBox="842.51 209.12 1131.87 1153.58">
 <g fill="#3a5171" fill-rule="evenodd">
  <path d="M1370.55 1334.33 C1236.91 1322.05 1114.53 1264.13 1024.07 1169.99 C901.49 1042.70 848.07 867.52 877.95 689.88 C886.96 637.08 901.69 592.26 927.89 539.26 C957.97 478.47 990.51 433.45 1037.79 387.81 C1081.38 345.45 1121.69 316.80 1172.65 291.42 C1377.30 189.71 1614.90 227.98 1782.10 389.66 C1849.84 455.14 1905.30 550.72 1928.84 642.40 C1952.58 735.52 1953.40 826.18 1931.50 917.86 C1884.02 1115.76 1731.55 1269.86 1533.86 1319.59 C1507.26 1326.34 1472.26 1332.07 1443.20 1334.12 C1409.64 1336.78 1397.15 1336.78 1370.55 1334.33 M1092.22 1107.16 C1055.80 1100.82 1024.48 1077.49 1006.88 1043.52 C988.87 1008.93 988.26 974.14 1004.84 940.17 C1012.82 924.41 1032.47 902.31 1047 892.89 C1069.30 878.57 1103.27 871.61 1127.63 876.32 L1134.79 877.75 1147.89 854.83 C1176.54 804.69 1276.61 633.19 1298.72 596.15 C1311.40 574.66 1322.05 556.65 1322.05 556.04 C1322.05 555.42 1318.36 549.49 1314.07 542.94 C1293.19 511.01 1288.28 477.04 1299.74 443.07 C1321.84 376.97 1396.13 345.45 1458.34 375.53 C1504.60 397.84 1532.22 456.99 1519.53 505.90 C1516.06 518.79 1506.23 539.67 1498.87 549.49 L1494.16 555.83 1503.57 570.98 C1513.19 586.73 1610.60 753.12 1631.07 788.93 C1684.28 881.43 1681.41 876.93 1686.53 876.32 C1704.54 874.27 1729.30 875.70 1741.58 879.59 C1799.09 898.01 1835.31 958.59 1822.62 1015.07 C1818.94 1031.24 1808.30 1052.52 1796.84 1066.64 C1779.85 1087.72 1755.70 1101.64 1727.46 1106.34 C1677.93 1114.94 1629.84 1089.15 1607.13 1041.67 L1599.35 1025.51 1409.02 1025.30 L1218.70 1025.30 1210.92 1041.67 C1189.84 1086.08 1137.25 1115.14 1092.22 1107.16 M1216.24 954.08 C1211.74 941.80 1206.42 931.57 1200.28 922.98 C1196.19 917.45 1193.12 912.54 1193.12 911.72 C1193.12 910.90 1201.71 895.76 1212.15 878.16 C1222.79 860.56 1243.26 825.36 1257.99 800.19 C1282.96 756.80 1298.31 730.60 1356.22 631.96 L1379.76 591.85 1388.15 593.90 C1396.74 595.74 1428.67 594.92 1434.60 592.47 C1436.86 591.65 1440.33 595.94 1448.11 609.25 C1453.84 619.07 1480.04 664.09 1506.23 709.12 C1532.22 754.14 1557.19 796.91 1561.49 804.28 C1565.58 811.44 1577.66 832.32 1588.09 850.33 C1598.33 868.33 1611.01 889.62 1616.13 897.80 L1625.13 912.54 1618.18 921.54 C1614.49 926.46 1608.76 936.69 1605.69 944.06 L1600.37 957.77 1409.02 957.77 C1228.52 957.77 1217.47 957.36 1216.24 954.08 "/>
 </g>
 <g fill="#203a5b" fill-rule="evenodd">
  <path d="M1380.78 1361.95 C1353.15 1359.29 1315.09 1353.97 1297.69 1350.49 C1217.06 1333.92 1132.54 1294.83 1066.44 1243.67 C1038.60 1222.18 986.01 1169.58 964.52 1141.75 C891.46 1047.40 849.51 935.05 843.37 816.97 C838.05 715.05 857.28 620.71 902.31 529.02 C931.98 468.65 965.13 421.99 1011.80 375.33 C1070.12 317 1132.74 275.67 1206.62 246.81 C1278.87 218.57 1343.13 207.31 1422.33 209.36 C1485.56 210.79 1524.45 217.54 1581.95 236.58 C1722.75 283.03 1842.68 387 1911.44 522.27 C1973.86 645.06 1990.03 779.31 1959.13 918.88 C1942.34 994.81 1906.94 1070.12 1856.39 1137.86 C1831.63 1170.81 1778.21 1224.02 1744.65 1248.78 C1669.13 1304.65 1585.23 1340.47 1496 1354.59 C1453.43 1361.34 1406.57 1364.20 1380.78 1361.95 M1370.55 1334.33 C1236.91 1322.05 1114.53 1264.13 1024.07 1169.99 C901.49 1042.70 848.07 867.52 877.95 689.88 C886.96 637.08 901.69 592.26 927.89 539.26 C957.97 478.47 990.51 433.45 1037.79 387.81 C1081.38 345.45 1121.69 316.80 1172.65 291.42 C1377.30 189.71 1614.90 227.98 1782.10 389.66 C1849.84 455.14 1905.30 550.72 1928.84 642.40 C1952.58 735.52 1953.40 826.18 1931.50 917.86 C1884.02 1115.76 1731.55 1269.86 1533.86 1319.59 C1507.26 1326.34 1472.26 1332.07 1443.20 1334.12 C1409.64 1336.78 1397.15 1336.78 1370.55 1334.33 M1092.22 1107.16 C1055.80 1100.82 1024.48 1077.49 1006.88 1043.52 C988.87 1008.93 988.26 974.14 1004.84 940.17 C1012.82 924.41 1032.47 902.31 1047 892.89 C1069.30 878.57 1103.27 871.61 1127.63 876.32 L1134.79 877.75 1147.89 854.83 C1176.54 804.69 1276.61 633.19 1298.72 596.15 C1311.40 574.66 1322.05 556.65 1322.05 556.04 C1322.05 555.42 1318.36 549.49 1314.07 542.94 C1293.19 511.01 1288.28 477.04 1299.74 443.07 C1321.84 376.97 1396.13 345.45 1458.34 375.53 C1504.60 397.84 1532.22 456.99 1519.53 505.90 C1516.06 518.79 1506.23 539.67 1498.87 549.49 L1494.16 555.83 1503.57 570.98 C1513.19 586.73 1610.60 753.12 1631.07 788.93 C1684.28 881.43 1681.41 876.93 1686.53 876.32 C1704.54 874.27 1729.30 875.70 1741.58 879.59 C1799.09 898.01 1835.31 958.59 1822.62 1015.07 C1818.94 1031.24 1808.30 1052.52 1796.84 1066.64 C1779.85 1087.72 1755.70 1101.64 1727.46 1106.34 C1677.93 1114.94 1629.84 1089.15 1607.13 1041.67 L1599.35 1025.51 1409.02 1025.30 L1218.70 1025.30 1210.92 1041.67 C1189.84 1086.08 1137.25 1115.14 1092.22 1107.16 M1087.11 1085.88 C1051.29 1076.26 1022.44 1045.36 1014.87 1009.34 C1005.45 964.52 1034.10 914.79 1077.49 900.26 C1093.25 895.14 1115.14 894.12 1131.31 898.21 C1140.52 900.47 1142.57 900.47 1144.82 898.01 C1146.25 896.58 1162.42 869.56 1180.84 838.05 C1231.18 751.07 1239.78 736.33 1295.24 641.79 C1323.48 593.49 1346.60 553.58 1346.60 552.97 C1346.60 552.35 1342.72 547.85 1338.21 542.73 C1320.61 523.70 1311 491.37 1315.29 465.38 C1318.36 446.75 1327.98 427.72 1340.67 414.01 C1399.20 352.20 1502.14 393.34 1502.14 478.68 C1502.14 503.24 1492.93 527.39 1476.97 545.60 C1473.49 549.49 1471.44 553.79 1472.06 555.42 C1472.67 557.06 1487.20 582.23 1504.39 611.29 C1521.38 640.35 1539.80 671.46 1544.91 680.47 C1550.23 689.47 1566.40 717.10 1580.73 741.86 C1595.26 766.62 1618.79 807.14 1633.12 831.91 C1647.44 856.67 1662.38 882.46 1666.47 889.41 L1673.84 902.10 1683.46 899.24 C1697.79 894.73 1724.80 895.35 1739.74 900.47 C1787.63 916.63 1814.64 966.77 1801.75 1015.89 C1790.08 1060.71 1747.31 1091.81 1702.49 1088.13 C1665.04 1084.86 1631.48 1057.84 1619.81 1021.21 L1614.90 1005.86 1408.82 1005.86 L1202.53 1005.86 1200.07 1015.68 C1187.39 1065.21 1133.56 1098.77 1087.11 1085.88 M1199.26 964.32 C1194.75 948.97 1186.16 933.82 1175.31 922.77 L1168.35 915.40 1208.87 845.82 C1230.98 807.76 1276.41 729.58 1309.77 672.48 C1362.36 581.82 1370.55 568.93 1374.23 569.95 C1376.48 570.57 1385.28 572.61 1393.67 574.25 C1408 577.32 1410.46 577.32 1425.40 574.05 C1434.40 572.20 1443 570.36 1444.63 570.16 C1447.50 569.75 1467.96 603.52 1541.02 729.58 C1563.74 768.87 1597.51 827 1615.93 858.51 L1649.28 916.02 1640.48 925.43 C1631.27 935.46 1622.07 951.63 1617.56 966.77 L1614.70 976.19 1409.02 977.21 L1203.35 978.23 1199.26 964.32 M1216.24 954.08 C1211.74 941.80 1206.42 931.57 1200.28 922.98 C1196.19 917.45 1193.12 912.54 1193.12 911.72 C1193.12 910.90 1201.71 895.76 1212.15 878.16 C1222.79 860.56 1243.26 825.36 1257.99 800.19 C1282.96 756.80 1298.31 730.60 1356.22 631.96 L1379.76 591.85 1388.15 593.90 C1396.74 595.74 1428.67 594.92 1434.60 592.47 C1436.86 591.65 1440.33 595.94 1448.11 609.25 C1453.84 619.07 1480.04 664.09 1506.23 709.12 C1532.22 754.14 1557.19 796.91 1561.49 804.28 C1565.58 811.44 1577.66 832.32 1588.09 850.33 C1598.33 868.33 1611.01 889.62 1616.13 897.80 L1625.13 912.54 1618.18 921.54 C1614.49 926.46 1608.76 936.69 1605.69 944.06 L1600.37 957.77 1409.02 957.77 C1228.52 957.77 1217.47 957.36 1216.24 954.08 "/>
 </g>
 <g fill="#3c89c1" fill-rule="evenodd">
  <path d="M1087.11 1085.88 C1051.29 1076.26 1022.44 1045.36 1014.87 1009.34 C1005.45 964.52 1034.10 914.79 1077.49 900.26 C1093.25 895.14 1115.14 894.12 1131.31 898.21 C1140.52 900.47 1142.57 900.47 1144.82 898.01 C1146.25 896.58 1162.42 869.56 1180.84 838.05 C1231.18 751.07 1239.78 736.33 1295.24 641.79 C1323.48 593.49 1346.60 553.58 1346.60 552.97 C1346.60 552.35 1342.72 547.85 1338.21 542.73 C1320.61 523.70 1311 491.37 1315.29 465.38 C1318.36 446.75 1327.98 427.72 1340.67 414.01 C1399.20 352.20 1502.14 393.34 1502.14 478.68 C1502.14 503.24 1492.93 527.39 1476.97 545.60 C1473.49 549.49 1471.44 553.79 1472.06 555.42 C1472.67 557.06 1487.20 582.23 1504.39 611.29 C1521.38 640.35 1539.80 671.46 1544.91 680.47 C1550.23 689.47 1566.40 717.10 1580.73 741.86 C1595.26 766.62 1618.79 807.14 1633.12 831.91 C1647.44 856.67 1662.38 882.46 1666.47 889.41 L1673.84 902.10 1683.46 899.24 C1697.79 894.73 1724.80 895.35 1739.74 900.47 C1787.63 916.63 1814.64 966.77 1801.75 1015.89 C1790.08 1060.71 1747.31 1091.81 1702.49 1088.13 C1665.04 1084.86 1631.48 1057.84 1619.81 1021.21 L1614.90 1005.86 1408.82 1005.86 L1202.53 1005.86 1200.07 1015.68 C1187.39 1065.21 1133.56 1098.77 1087.11 1085.88 M1199.26 964.32 C1194.75 948.97 1186.16 933.82 1175.31 922.77 L1168.35 915.40 1208.87 845.82 C1230.98 807.76 1276.41 729.58 1309.77 672.48 C1362.36 581.82 1370.55 568.93 1374.23 569.95 C1376.48 570.57 1385.28 572.61 1393.67 574.25 C1408 577.32 1410.46 577.32 1425.40 574.05 C1434.40 572.20 1443 570.36 1444.63 570.16 C1447.50 569.75 1467.96 603.52 1541.02 729.58 C1563.74 768.87 1597.51 827 1615.93 858.51 L1649.28 916.02 1640.48 925.43 C1631.27 935.46 1622.07 951.63 1617.56 966.77 L1614.70 976.19 1409.02 977.21 L1203.35 978.23 1199.26 964.32 "/>
 </g>
</svg>